# xmcd
#
# Track frame offsets:
#	150
#	18429
#	38034
#	56117
#	73113
#	93341
#	108303
#	133662
#	153452
#	169697
#	187547
#	203134
#
# Disc length: 2977 seconds
#
# Revision: 2
# Processed by: cddbd v1.4PL0 Copyright (c) Steve Scherf et al.
# Submitted via: EZCDDA 4.3.2
#
DISCID=9a0b9f0c
DTITLE=Ferrublues - blind lizard
DYEAR=1900
DGENRE=
TTITLE0=Things get better
TTITLE1=Breaking the law
TTITLE2=Do the widow
TTITLE3=Get Fun (Nuts and bolts)
TTITLE4=Blind lizard
TTITLE5=Running down
TTITLE6=The passing time
TTITLE7=A change in the weather
TTITLE8=Playin´ in a soul band
TTITLE9=Nobody told me
TTITLE10=Broken cards
TTITLE11=Throw it out
EXTD=
EXTT0=
EXTT1=
EXTT2=
EXTT3=
EXTT4=
EXTT5=
EXTT6=
EXTT7=
EXTT8=
EXTT9=
EXTT10=
EXTT11=
PLAYORDER=
